<svg width="1200" height="800" xmlns="http://www.w3.org/2000/svg">
  <defs>
    <style>
      .topo-line {
        stroke: rgba(255, 255, 255, 0.6);
        stroke-width: 0.5;
        fill: none;
        opacity: 0.8;
      }
    </style>
  </defs>
  <!-- Faint topographic contour lines -->
  <path class="topo-line" d="M 0,400 Q 200,350 400,380 T 800,360 T 1200,400" />
  <path class="topo-line" d="M 0,420 Q 200,370 400,400 T 800,380 T 1200,420" />
  <path class="topo-line" d="M 0,380 Q 200,330 400,360 T 800,340 T 1200,380" />
  <path class="topo-line" d="M 0,440 Q 200,390 400,420 T 800,400 T 1200,440" />
  <path class="topo-line" d="M 0,360 Q 200,310 400,340 T 800,320 T 1200,360" />
  <path class="topo-line" d="M 0,300 Q 300,280 600,290 T 1200,300" />
  <path class="topo-line" d="M 0,500 Q 300,480 600,490 T 1200,500" />
</svg>

